<?xml version="1.0"?>
<svg version="1.1" xmlns="http://www.w3.org/2000/svg" width="164px" height="50px" style=""><path fill="#2cb1bc" d="M17.782,37.342l-11.288,0c0.204,2.72,1.768,4.318,4.114,4.318c2.822,0,5.712-1.598,5.712-1.598l1.462,2.822s-3.4,2.856-7.752,2.856c-5.848,0-8.84-3.4-8.84-9.18c0-5.95,3.366-9.86,9.078-9.86c5.066,0,7.718,3.128,7.718,7.99c0,1.292-0.204,2.55-0.204,2.652z M6.562,34.18l6.154,0c0-1.938-0.816-3.4-2.788-3.4c-1.904,0-3.094,1.394-3.366,3.4z M22.72934,45.4l0-2.89l2.55-1.02l0-15.98l-2.55-1.02l0-2.89l8.772-0.17l5.1,11.322l5.338-11.152l8.16-0.17l0,3.06l-2.448,1.02l0,15.98l2.55,1.02l0,2.89l-10.132,0l0-2.89l2.652-1.02l0-12.784l-0.918,2.244l-3.842,7.99l-3.672,0.17l-3.91-8.058l-0.578-1.768l0,12.206l2.618,1.02l0,2.89l-9.69,0z M64.12468,26.7c5.508,0,8.568,3.332,8.568,9.18c0,6.12-3.57,9.86-9.078,9.86c-5.542,0-8.67-2.89-8.67-9.35c0-6.12,3.638-9.69,9.18-9.69z M63.95468,30.78c-2.482,0-3.74,1.36-3.74,5.44c0,3.74,1.088,5.44,3.57,5.44c2.448,0,3.638-1.53,3.638-5.61c0-3.468-1.02-5.27-3.468-5.27z M89.50602,41.048l1.224,2.584c-1.666,1.224-3.57,2.108-5.78,2.108c-3.91,0-5.032-2.72-5.032-6.63l0-7.82l-3.162,0l0-3.298l3.162-0.442l0-4.692l5.1-0.918l0,5.61l4.76,0l0,3.74l-4.76,0l0,7.48c0,2.176,0.374,3.06,1.802,3.06c0.918,0,2.244-0.544,2.686-0.782z M96.73136,21.43c0-1.938,1.394-3.06,2.924-3.06c1.768,0,2.856,0.918,2.856,3.06c0,2.006-1.462,3.094-2.856,3.094c-1.836,0-2.924-1.088-2.924-3.094z M102.44336,41.83l2.38,0.85l0,2.72l-10.2,0l0-2.72l2.72-0.85l0-11.05l-2.72-0.85l0-2.72l7.82-0.17l0,14.79z M118.5767,26.7c5.508,0,8.568,3.332,8.568,9.18c0,6.12-3.57,9.86-9.078,9.86c-5.542,0-8.67-2.89-8.67-9.35c0-6.12,3.638-9.69,9.18-9.69z M118.4067,30.78c-2.482,0-3.74,1.36-3.74,5.44c0,3.74,1.088,5.44,3.57,5.44c2.448,0,3.638-1.53,3.638-5.61c0-3.468-1.02-5.27-3.468-5.27z M139.09604,27.04l0.238,2.346s3.23-2.618,6.256-2.618c3.298,0,5.168,2.346,5.168,6.052l0,9.01l2.38,0.85l0,2.72l-9.35,0l0-2.72l1.87-0.85l0-8.092c0-1.564-0.884-2.72-2.312-2.72c-2.108,0-3.638,1.938-3.638,1.938l0,8.874l1.87,0.85l0,2.72l-9.69,0l0-2.72l2.72-0.85l0-11.05l-2.72-0.85l0-2.72z"/><path fill="#" d=""/></svg>
